inDegrees=no
num_controls=7
num_derivatives=13
num_iterations=90
num_multipliers=7
num_parameters=0
num_slacks=7
num_states=26
objective=0.426621
objective_accelerations=0.058067
objective_balance=0.001323
objective_effort=0.014430
objective_height=0.346861
objective_ligament=0.005940
solver_duration=1308.986974
status=Solve_Succeeded
success=true
DataType=double
version=3
OpenSimVersion=4.5
endheader
time	/jointset/ground_pelvis/pelvis_tilt/value	/jointset/ground_pelvis/pelvis_tx/value	/jointset/ground_pelvis/pelvis_ty/value	/jointset/hip_l/hip_flexion_l/value	/jointset/hip_l/hip_adduction_l/value	/jointset/hip_l/hip_rotation_l/value	/jointset/back/lumbar_extension/value	/jointset/patellofemoral_l/patellar_flexion_l/value	/jointset/knee_l/knee_flexion_l/value	/jointset/knee_l/knee_adduction_l/value	/jointset/knee_l/knee_rotation_l/value	/jointset/ankle_l/ankle_angle_l/value	/jointset/subtalar_l/subtalar_angle_l/value	/jointset/ground_pelvis/pelvis_tilt/speed	/jointset/ground_pelvis/pelvis_tx/speed	/jointset/ground_pelvis/pelvis_ty/speed	/jointset/hip_l/hip_flexion_l/speed	/jointset/hip_l/hip_adduction_l/speed	/jointset/hip_l/hip_rotation_l/speed	/jointset/back/lumbar_extension/speed	/jointset/patellofemoral_l/patellar_flexion_l/speed	/jointset/knee_l/knee_flexion_l/speed	/jointset/knee_l/knee_adduction_l/speed	/jointset/knee_l/knee_rotation_l/speed	/jointset/ankle_l/ankle_angle_l/speed	/jointset/subtalar_l/subtalar_angle_l/speed	/forceset/tau_hip_flexion_l	/forceset/tau_hip_adduction_l	/forceset/tau_hip_rotation_l	/forceset/tau_knee_flexion_l	/forceset/tau_ankle_angle_l	/forceset/tau_subtalar_angle_l	/forceset/tau_lumbar_extension	lambda_cid13_p0	lambda_cid13_p1	lambda_cid13_p2	lambda_cid13_p3	lambda_cid13_p4	lambda_cid13_p5	lambda_cid14_p0	/jointset/ground_pelvis/pelvis_tilt/accel	/jointset/ground_pelvis/pelvis_tx/accel	/jointset/ground_pelvis/pelvis_ty/accel	/jointset/hip_l/hip_flexion_l/accel	/jointset/hip_l/hip_adduction_l/accel	/jointset/hip_l/hip_rotation_l/accel	/jointset/back/lumbar_extension/accel	/jointset/patellofemoral_l/patellar_flexion_l/accel	/jointset/knee_l/knee_flexion_l/accel	/jointset/knee_l/knee_adduction_l/accel	/jointset/knee_l/knee_rotation_l/accel	/jointset/ankle_l/ankle_angle_l/accel	/jointset/subtalar_l/subtalar_angle_l/accel	gamma_cid13_p0	gamma_cid13_p1	gamma_cid13_p2	gamma_cid13_p3	gamma_cid13_p4	gamma_cid13_p5	gamma_cid14_p0
1	-0.4358866625978013	-0.001733422936450332	0.5981909778059047	1.676966227566631	-0.3469097279649591	0.1282953995881471	-0.4363183837942837	1.501551612419387	1.501551612419395	0.06507042300739972	-0.1745107113592113	0.4348979257483868	0.2488263014820171	-0.1466318261238566	-0.002568859887919702	0.02905167422691675	0.04470888362486557	0.002427199184178116	-0.05777356387827705	-6.32419847624805e-05	-0.1451230740564161	-0.1451230740564136	0.002647396551924975	7.142993312820198e-05	-0.05558257261809293	-0.02958707257620802	-0.2342537422522053	0.04715379481025014	-0.01342239044881141	-0.2901112632399682	-0.03734388963116627	0.008992774178244525	0.2056537230663079	-44.4886284373603	9.849737255275755	-8.665549253813907	8.443555816818613	-540.6632350859818	-62.25405879383203	-0.02388913063436933	1.466346248714025	0.1473486166933786	1.959187018993517	-6.403854633730081	-0.1785442653580073	-1.514021328892685	-0.02087962371158764	-5.538682870721909	-5.538682870721987	-0.8498105404069582	-0.03023577656708999	-1.083640456250912	-0.9368212393457142	7.515730940017374e-10	-1.314586258715196e-07	-5.440640732566772e-08	-1.234099341282308e-08	-4.550355119661558e-09	-1.739162873232945e-07	5.776211305072557e-09
1.01	-0.4372803317425081	-0.00175172953020908	0.5985792211261031	1.677094203868566	-0.3468938054100474	0.127644038011251	-0.4363191915864688	1.499823937680731	1.499823937680739	0.06505328722861492	-0.1745099963976723	0.434287969437322	0.2484845937847332	-0.1320941097033164	-0.001085824607901171	0.04858586781838652	-0.01909831111457482	0.000761321836941878	-0.07249121043055054	-9.717037746374667e-05	-0.200398630999138	-0.2003986309991412	-0.006067217645972037	7.011047866373519e-05	-0.06641485507138065	-0.03874437480948529	-0.2346216333111123	0.04718122385272189	-0.01346727324909851	-0.2891438785158651	-0.03755772724738372	0.009025467237921459	0.2058255025019103	-44.51647946771343	9.803136226510704	-8.615538385890588	8.330944303942799	-540.4058939863436	-62.1126376087395	-0.02390502065986744	1.448669032872309	0.1497719964707653	1.948865570857777	-6.366854336569082	-0.1599950575727178	-1.449511450902586	0.005522464152971814	-5.520007105167136	-5.520007105167932	-0.8811987098938545	0.01467542831132853	-1.083954631523359	-0.9036342100761392	8.286462454939521e-10	-1.72300570269069e-07	-7.849537568758328e-08	-2.054487070614007e-08	-8.258539931716082e-09	-2.210046761008933e-07	6.990068343504433e-09
1.02	-0.4385283867841801	-0.001755007568604664	0.5991624723905433	1.676584567734607	-0.3468944187462409	0.1268457249423314	-0.4363203042803324	1.497543904372824	1.497543904372829	0.06494922293777425	-0.1745093435390393	0.4335695038033924	0.2480516231661651	-0.1175090055168439	0.0004368511847130477	0.06805326307522598	-0.08281360355473581	-0.0008799790369461947	-0.08716386228314073	-0.0001242223220687275	-0.2555947879066519	-0.2555947879066606	-0.01473830586038026	5.900935209742903e-05	-0.07728443719089426	-0.04783965683305856	-0.2349895243699875	0.0472086528951995	-0.01351215604936164	-0.2881764937917612	-0.03777156486360558	0.009058160297604891	0.2059972819375451	-44.54860159953095	9.755224692922217	-8.562967196373636	8.22219844593592	-540.2613619307816	-61.9742904196267	-0.02392369293970726	1.475823801900501	0.1552767192125065	1.945827352067453	-6.385474173874201	-0.1736289706883721	-1.505022388956038	-0.01950433409229295	-5.52280286368028	-5.522802863680338	-0.8411053437091851	-0.03219211098746333	-1.091100389496113	-0.9244171974049231	9.157321396191228e-10	-2.121747581554147e-07	-1.013527511059735e-07	-2.838137504149171e-08	-1.19814027125232e-08	-2.664258376780635e-07	8.089248934573422e-09
1.03	-0.4396303457757708	-0.001742827767271341	0.5999399834108745	1.675438392179544	-0.3469112894452978	0.1259009329447645	-0.4363216231902087	1.494712402549657	1.494712402549666	0.06475873790540133	-0.1745088255108286	0.4327421086025845	0.2475280609889815	-0.1028742317213522	0.002009038293619848	0.08742983401194442	-0.1463910220976256	-0.002487018550700339	-0.1017822900938772	-0.0001353718405971948	-0.3106827132260644	-0.3106827132260753	-0.02334708307497911	4.560365745156982e-05	-0.08820528604211324	-0.05685760212039109	-0.2351191866089369	0.0472464684931293	-0.01352568964453995	-0.2870408979839891	-0.0378425658927521	0.00911077257452359	0.2060199262235511	-44.5100769731921	9.680765455589173	-8.49985061743061	8.053799272870947	-539.8173441623741	-61.82933364051753	-0.02394842810268244	1.458588603211044	0.1596717981554393	1.930702754155985	-6.339302620983173	-0.1531488979466135	-1.438425380757749	0.008707911172614154	-5.498359685060957	-5.498359685061217	-0.8690396998514599	0.01419556951808338	-1.094190902720058	-0.8881517706878909	1.002920204587487e-09	-2.520390709753196e-07	-1.241975592494298e-07	-3.621413067319064e-08	-1.570441526852167e-08	-3.118299867327802e-07	9.187259357812176e-09
1.04	-0.4405857001424385	-0.001714629676563756	0.6009106862985095	1.673657357053769	-0.3469440120307354	0.1248103221883667	-0.4363229279608733	1.491330707009498	1.4913307070095	0.06448250994297981	-0.1745084194659205	0.4318051821593063	0.2469147856436664	-0.08818808053235745	0.003640509059565154	0.1066916365359516	-0.209785517699984	-0.004050356313562421	-0.1163276140496258	-0.0001213944828947178	-0.3656335313050452	-0.3656335313050577	-0.03188689187022681	3.661269165512184e-05	-0.09919068568474274	-0.06578229045934224	-0.2352488488477824	0.04728428409107439	-0.01353922323970287	-0.2859053021762178	-0.03791356692191338	0.009163384851457986	0.2060425705096644	-44.47600966450094	9.605093175825392	-8.434263345649853	7.889565616081472	-539.4866558123689	-61.68811636144862	-0.02397603604221683	1.486099280601106	0.1671334506201983	1.922873669525198	-6.348889585767942	-0.1648886205099573	-1.490401617958493	-0.01447895884601145	-5.495381415593899	-5.495381415593863	-0.8273116598389414	-0.03130916521758704	-1.104010547778234	-0.9057658077286584	-2.626741432658039e-11	-2.900627053811154e-07	-1.45923765243478e-07	-4.133448034723424e-08	-2.048222938806091e-08	-3.522761363982264e-07	1.003844618577632e-08
1.05	-0.4413936512505064	-0.00166973746173464	0.6020734265963471	1.67124297597037	-0.3469921714003457	0.1235746236330586	-0.4363242276556615	1.487400193945078	1.487400193945076	0.0641212274536424	-0.174508116951735	0.4307581272589413	0.2462127491182059	-0.07336492273963158	0.005356162905759373	0.125836737800041	-0.273092580474868	-0.005576056956811468	-0.1307971863683955	-0.0001607639134626677	-0.4204457859613336	-0.4204457859613494	-0.04036078677810621	2.2517266269876e-05	-0.1102258598259235	-0.07460677214708254	-0.2351550942188811	0.04731154174065556	-0.01351482120056519	-0.284748467038907	-0.03767404469068556	0.009233140166729433	0.2059421753492111	-44.32244471105334	9.503451598192537	-8.367276449928248	7.586817324689767	-538.9661041507726	-61.56693008784848	-0.02400785954437005	1.486006730956243	0.1765063766381149	1.907370462919722	-6.321897005600892	-0.1455620563026326	-1.423011351341385	-0.001998850822565935	-5.470655332902486	-5.470655332902999	-0.8561306553014181	0.01328051113271164	-1.104120832546667	-0.8679805979209555	-1.090341773361967e-09	-3.280288185864703e-07	-1.676150149203572e-07	-4.637006733510113e-08	-2.52930060564608e-08	-3.92567348582758e-07	1.088191977638813e-08
1.06	-0.4420522542401771	-0.001607143703439746	0.6034270263284395	1.668195467782768	-0.3470554180304032	0.1221946740920635	-0.4363265876278627	1.482922256765644	1.482922256765641	0.0636754655654187	-0.1745080073433382	0.4296005506201124	0.2454230295261431	-0.05831845685299197	0.007180817752720356	0.1448635233868927	-0.3364109385398436	-0.007067808402871203	-0.1451778111873721	-0.0003334499704449488	-0.4751183543078681	-0.4751183543078872	-0.04878277164754487	-1.96846584742916e-06	-0.1212950333774502	-0.08331890377979204	-0.2350613395899996	0.04733879939023751	-0.01349041916142911	-0.2835916319015944	-0.03743452245945335	0.009302895482004921	0.2058417801887377	-44.17358672162445	9.400680957111032	-8.29787826773199	7.288630006886359	-538.5597822980895	-61.4504587262586	-0.02404273281212201	1.530760899383869	0.1889336507735407	1.899210534077672	-6.351148643786259	-0.158098781072093	-1.472612117999881	-0.04114228412869305	-5.467444153643101	-5.467444153643075	-0.8169296521507804	-0.03338722656400511	-1.110810429847461	-0.8832957967225029	-6.194466204346977e-10	-3.65820765122027e-07	-1.845307744078327e-07	-5.366301312344524e-08	-2.893359155346638e-08	-4.353538804336491e-07	1.158505088371295e-08
1.07	-0.4425599037621364	-0.00152584964353607	0.6049701745615046	1.66451562859468	-0.347133291077638	0.120671347277808	-0.4363304001859008	1.477898212556938	1.477898212556933	0.06314587414859257	-0.1745080713158774	0.4283317474061407	0.2445467472778408	-0.04323731936791213	0.009087083535960917	0.1637338388862708	-0.3994687807305626	-0.008489513892713798	-0.1594686204038477	-0.0003570463588605053	-0.5296756573874535	-0.5296756573874887	-0.05712030987407812	1.563375179581248e-07	-0.1325073159829481	-0.09191959344184034	-0.2350556698337322	0.04753934440183827	-0.01345455331539984	-0.2819072936144045	-0.03776529752692442	0.009367494228749162	0.2058242601296089	-44.20000011186947	9.304255568440412	-8.199127770480251	7.21853135703809	-537.9607233943671	-61.23867696459572	-0.02409087485116029	1.492909072348799	0.1928241182223573	1.876092853889693	-6.26988470777649	-0.1315777023819202	-1.404491721028015	0.02783397693351072	-5.447651344185221	-5.447651344187646	-0.8399171578563805	0.01859472147321701	-1.132711599710054	-0.8456742455569047	-6.690415304131949e-11	-4.036034474730198e-07	-2.011925184597017e-07	-6.107603118841051e-08	-3.251193283922758e-08	-4.782731420540274e-07	1.228071696533102e-08
1.08	-0.4429175181293926	-0.001425222710575297	0.6067010561087679	1.660207854444456	-0.3472248554336625	0.1190056770918729	-0.4363322882492461	1.472329039725622	1.472329039725627	0.0625333570995175	-0.1745077975628451	0.4269495664813535	0.2435850143939958	-0.02831142591168262	0.01104739236413959	0.1824101862265046	-0.4619979309637538	-0.009806070160215417	-0.1736464855225893	5.144897798250807e-05	-0.5841440788297995	-0.5841440788298513	-0.06536789809868424	6.557664833980988e-05	-0.1439705755408115	-0.1004090308883256	-0.2350500000775742	0.04773988941341484	-0.01341868746936592	-0.280222955327216	-0.03809607259438425	0.009432092975460766	0.2058067400703648	-44.23144531275029	9.206846838769712	-8.09809067354964	7.15262882592436	-537.4791682860339	-61.03305572654666	-0.02414221415260585	1.499712093613827	0.1997422597611525	1.860416902248821	-6.245410252280687	-0.137068936603898	-1.450023298453105	0.04527606092324912	-5.44966782619521	-5.449667826195316	-0.798939651765339	-0.02072812507272004	-1.161005820320589	-0.8610453536098929	-4.4185756866991e-09	-4.428658201584399e-07	-2.139841248438836e-07	-6.140490318077088e-08	-3.858584677254049e-08	-4.98239123118567e-07	9.635985488898086e-09
